<?xml version="1.0" standalone="no"?>
<!DOCTYPE svg PUBLIC "-//W3C//DTD SVG 20010904//EN"
 "http://www.w3.org/TR/2001/REC-SVG-20010904/DTD/svg10.dtd">
<svg version="1.0" xmlns="http://www.w3.org/2000/svg"
 width="64.000000pt" height="64.000000pt" viewBox="0 0 64.000000 64.000000"
 preserveAspectRatio="xMidYMid meet">

<g transform="translate(0.000000,64.000000) scale(0.100000,-0.100000)"
fill="#000000" stroke="none">
<path d="M142 619 c-48 -14 -109 -80 -123 -131 -34 -126 46 -242 176 -255 l55
-6 0 -38 c0 -22 4 -39 10 -39 5 0 10 -30 12 -67 l3 -68 165 0 165 0 3 67 c2
38 7 68 13 68 6 0 9 31 7 78 l-3 77 -52 3 c-51 3 -53 4 -53 33 0 19 -5 29 -15
29 -8 0 -15 5 -15 10 0 6 -17 10 -39 10 l-38 0 -6 55 c-11 104 -79 173 -178
180 -30 3 -69 0 -87 -6z m135 -24 c21 -9 46 -23 57 -33 41 -37 68 -130 50
-176 -12 -31 -21 -15 -17 28 14 121 -116 213 -224 157 -62 -31 -88 -74 -88
-143 0 -88 54 -147 144 -156 28 -2 51 -8 51 -13 0 -17 -77 -9 -120 13 -132 67
-132 249 0 316 52 26 96 28 147 7z m-57 -165 c0 -5 -4 -10 -10 -10 -5 0 -10 5
-10 10 0 6 5 10 10 10 6 0 10 -4 10 -10z m250 -70 c0 -5 -13 -10 -30 -10 -16
0 -30 5 -30 10 0 6 14 10 30 10 17 0 30 -4 30 -10z m-114 -35 c-3 -8 -12 -15
-21 -15 -14 0 -14 3 2 24 18 24 30 18 19 -9z m144 5 c0 -18 -7 -20 -60 -20
-33 0 -60 4 -60 10 0 6 25 10 55 10 30 0 55 5 55 10 0 6 2 10 5 10 3 0 5 -9 5
-20z m108 -102 l3 -58 -71 0 c-56 0 -70 3 -70 15 0 10 -10 15 -30 15 -20 0
-30 -5 -30 -15 0 -12 -14 -15 -70 -15 l-70 0 0 53 c0 30 3 57 7 61 4 3 79 5
167 4 l161 -3 3 -57z m-158 -68 c0 -11 -4 -20 -10 -20 -5 0 -10 9 -10 20 0 11
5 20 10 20 6 0 10 -9 10 -20z m-40 -25 c0 -10 10 -15 30 -15 20 0 30 5 30 15
0 12 13 15 60 15 l61 0 -3 -57 -3 -58 -145 0 -145 0 -3 58 -3 57 61 0 c47 0
60 -3 60 -15z"/>
</g>
</svg>
